<?xml version="1.0" encoding="UTF-8" standalone="no"?>
<svg
   width="640pt"
   height="480pt"
   viewBox="0 0 640 480"
   version="1.1"
   id="svg55"
   sodipodi:docname="br.svg"
   inkscape:version="1.4.3 (0d15f75, 2025-12-25)"
   xmlns:inkscape="http://www.inkscape.org/namespaces/inkscape"
   xmlns:sodipodi="http://sodipodi.sourceforge.net/DTD/sodipodi-0.dtd"
   xmlns="http://www.w3.org/2000/svg"
   xmlns:svg="http://www.w3.org/2000/svg">
  <defs
     id="defs55" />
  <sodipodi:namedview
     id="namedview55"
     pagecolor="#ffffff"
     bordercolor="#000000"
     borderopacity="0.25"
     inkscape:showpageshadow="2"
     inkscape:pageopacity="0.0"
     inkscape:pagecheckerboard="0"
     inkscape:deskcolor="#d1d1d1"
     inkscape:document-units="pt"
     inkscape:zoom="1.8234375"
     inkscape:cx="426.39246"
     inkscape:cy="320"
     inkscape:window-width="2560"
     inkscape:window-height="1369"
     inkscape:window-x="-8"
     inkscape:window-y="-8"
     inkscape:window-maximized="1"
     inkscape:current-layer="svg55" />
  <g id="#229e45ff">
    <path fill="#229e45" id="path16"
       d="m 429.51,255.63 c 5.1,-2.36 11.37,3.74 8.77,8.9 -1.32,4.72 -7.63,6.91 -11.29,3.4 -4.33,-3.41 -1.94,-10.25 2.52,-12.3 m 0.88,2.74 c -2.42,1.61 -4.23,5.5 -1.6,7.76 4.15,3.69 10.09,-4.46 5.8,-7.63 -1.14,-1.35 -2.89,-0.92 -4.2,-0.13 z m -12.91,-6.7 c -1.48,-2.37 0.77,-5.95 3.58,-5.39 2.9,0.54 6.29,3.17 5.51,6.46 -0.14,1.83 -1.67,0.46 -2.61,0.17 0.36,-2.8 -1.89,-4.35 -4.48,-4.35 0.37,3.76 5.79,5.93 3.93,9.98 -2.39,4.58 -9.18,1.59 -10.16,-2.54 0.01,-1.22 0.09,-2.43 0.22,-3.63 0.72,0.26 1.45,0.53 2.18,0.8 -0.16,2.75 2,6.43 5.14,4.66 0.17,-2.53 -2.39,-4.01 -3.31,-6.16 z m -11.84,-10.96 c 1.46,-3.32 5.86,-2.41 7.93,-0.23 1.75,1.29 1.49,3.58 1.55,5.5 -0.86,-0.35 -1.72,-0.7 -2.56,-1.04 0.18,-2.84 -2.17,-4.34 -4.79,-3.94 0.9,3.57 6.09,5.84 4.26,9.91 -1.92,3.73 -7.22,2.09 -9.25,-0.69 -1.32,-1.54 -0.83,-3.65 -0.76,-5.48 0.84,0.4 1.68,0.8 2.53,1.21 -0.84,2.97 3.51,6.72 5.25,3.06 -1.46,-2.65 -5.45,-4.82 -4.16,-8.3 z m -10.15,-11.69 c 2.94,1.8 5.86,3.63 8.79,5.46 -0.29,0.5 -0.88,1.51 -1.18,2.01 -2.13,-1.33 -4.25,-2.68 -6.38,-4.01 -0.41,0.68 -1.22,2.04 -1.63,2.71 1.99,1.25 3.99,2.47 5.99,3.71 -0.32,0.5 -0.95,1.49 -1.27,1.99 -2.02,-1.23 -4.02,-2.48 -6.03,-3.71 -0.67,1.12 -1.32,2.24 -1.96,3.37 2.22,1.3 4.43,2.62 6.65,3.92 -0.29,0.51 -0.88,1.51 -1.17,2.02 -3.03,-1.83 -6.06,-3.66 -9.09,-5.49 2.43,-4 4.87,-7.98 7.28,-11.98 z m -21.17,4.08 c 2.13,-4.14 4.24,-8.28 6.41,-12.39 2.93,1.62 6.4,2.68 8.56,5.38 1.19,3.13 -1.8,6.24 -4.98,5.37 0.64,2.42 0.98,4.91 1.17,7.41 -0.76,-0.36 -2.28,-1.08 -3.05,-1.44 -0.47,-2.96 0.05,-6.51 -2.65,-8.55 -1.03,1.81 -2.03,3.65 -3,5.5 -0.62,-0.32 -1.85,-0.96 -2.46,-1.28 m 7.85,-9.2 c -0.58,1.12 -1.15,2.25 -1.72,3.39 1.92,0.65 4.99,3.42 6.24,0.46 -0.29,-2.25 -2.94,-2.74 -4.52,-3.85 z m -19.75,2.64 c -3.71,-4.93 2,-13.64 8.05,-11.05 3.1,0.81 4.97,3.64 4.86,6.8 -0.65,-0.16 -1.95,-0.48 -2.6,-0.65 -0.55,-1.5 -0.96,-3.45 -2.81,-3.8 -4.42,-1.65 -8.14,5.86 -4.3,8.49 1.57,1.15 3.86,1.13 5.14,-0.47 -1.13,-0.69 -2.27,-1.36 -3.4,-2.03 1.37,-3.23 4.55,0.23 6.64,0.9 -0.87,1.71 -1.75,3.43 -2.6,5.15 -3.29,0.18 -6.95,-0.47 -8.98,-3.34 z m -11,-17.99 c 4.43,-1.53 10.05,2.53 8.92,7.42 -0.12,4.97 -5.82,8.71 -10.25,5.98 -5.61,-2.61 -3.96,-11.44 1.33,-13.4 m 0.7,2.57 c -3.05,1.75 -4.05,7.87 -0.04,9.09 3.21,1.03 5.33,-2.51 5.5,-5.25 0.39,-2.78 -2.94,-5.31 -5.46,-3.84 z m -16.81,-10.21 c 2.97,1.21 6.35,1.81 8.89,3.87 2.15,2.9 -0.54,6.58 -3.89,6.37 0.96,2.27 1.64,4.65 2.16,7.06 -0.75,-0.21 -2.27,-0.64 -3.02,-0.85 -0.94,-2.91 -1.37,-6.17 -3.76,-8.32 -0.99,1.95 -1.78,3.99 -2.55,6.03 -0.63,-0.24 -1.89,-0.73 -2.52,-0.98 1.56,-4.39 3.12,-8.79 4.69,-13.18 m 1.76,3.1 c -0.38,1.18 -0.74,2.37 -1.09,3.57 2.02,0.61 6.69,2.59 5.95,-1.39 -1.47,-1.04 -3.21,-1.54 -4.86,-2.18 z m -16.16,-7.42 c 2.71,0.67 5.53,1.09 8.05,2.35 2.42,2.04 1.62,6.56 -1.43,7.54 -1.99,0.47 -4,-0.35 -5.95,-0.66 -0.4,1.69 -0.8,3.37 -1.19,5.06 -0.93,-0.23 -1.85,-0.46 -2.77,-0.68 1.09,-4.54 2.19,-9.07 3.29,-13.61 m 2.19,2.85 c -0.33,1.37 -0.65,2.74 -0.95,4.13 1.7,0.08 4.85,1.49 5.31,-1.05 0.32,-2.47 -2.76,-2.3 -4.36,-3.08 z m -18.99,-4.74 c 2.19,1.11 6.98,0.13 7.17,3.33 -1.84,-0.39 -3.66,-0.81 -5.48,-1.23 -0.18,0.51 -0.53,1.55 -0.71,2.07 1.65,0.42 3.31,0.83 4.97,1.25 -0.08,0.42 -0.24,1.25 -0.31,1.66 -1.66,-0.39 -3.32,-0.79 -4.97,-1.18 -0.14,0.67 -0.44,2.01 -0.58,2.68 2,0.49 4,1 5.97,1.61 -2.29,2.17 -5.62,-0.24 -8.3,-0.38 0.69,-3.28 1.46,-6.55 2.24,-9.81 z m -24.8,-6.98 c 1.39,0.22 2.79,0.45 4.18,0.69 0.36,3.26 0.73,6.52 1.11,9.77 1.31,-2.98 2.61,-5.97 3.9,-8.96 1.39,0.19 2.78,0.38 4.18,0.58 -0.65,4.58 -1.34,9.14 -1.93,13.73 -0.69,-0.08 -2.06,-0.22 -2.75,-0.3 0.55,-3.53 1.14,-7.06 1.6,-10.61 -1.48,3.36 -2.88,6.75 -4.28,10.15 -0.91,-0.13 -1.81,-0.25 -2.71,-0.37 -0.37,-3.67 -0.69,-7.35 -1.05,-11.02 -0.65,3.54 -1.16,7.11 -1.66,10.67 -0.64,-0.08 -1.93,-0.23 -2.57,-0.31 0.63,-4.68 1.31,-9.35 1.98,-14.02 z M 264.5,186 c 3.43,0.31 6.87,0.63 10.3,0.99 -0.05,0.6 -0.17,1.8 -0.22,2.4 -2.5,-0.23 -5,-0.48 -7.5,-0.69 -0.07,0.75 -0.22,2.25 -0.29,3.01 2.33,0.23 4.66,0.46 7,0.7 l -0.27,2.36 c -2.35,-0.22 -4.69,-0.45 -7.04,-0.66 -0.1,1.26 -0.19,2.53 -0.29,3.8 2.57,0.23 5.15,0.46 7.72,0.67 0,0.6 -0.02,1.78 -0.02,2.37 -3.57,-0.28 -7.12,-0.61 -10.68,-0.96 0.42,-4.66 0.88,-9.33 1.29,-13.99 z m -15.48,-0.8 c 3.37,0.55 7.97,-0.75 10.19,2.6 1.87,3.52 1.69,9.27 -2.33,11.22 -2.77,0.87 -5.73,0.22 -8.56,0.2 0.22,-4.67 0.45,-9.35 0.7,-14.02 m 2.17,11.89 c 1.83,-0.38 4.53,0.69 5.58,-1.34 0.76,-2.05 0.95,-4.48 0.17,-6.56 -1.22,-1.58 -3.49,-1.25 -5.21,-1.75 -0.21,3.22 -0.38,6.43 -0.54,9.65 z m -17.98,-12.56 c 3.37,0.25 7.16,-0.75 10.21,1.06 2.42,2.3 0.81,6.1 -2.17,6.87 1.71,1.87 3.08,4.01 4.3,6.22 -0.84,-0.01 -2.5,-0.02 -3.33,-0.03 -1.68,-2.49 -2.94,-5.79 -6.29,-6.32 -0.04,2.06 -0.05,4.12 -0.06,6.18 -0.7,0.02 -2.11,0.05 -2.82,0.07 0,-4.69 0.09,-9.37 0.16,-14.05 m 2.76,2.38 c 0.02,1.25 0.05,2.51 0.09,3.76 1.67,-0.15 3.39,-0.13 5.04,-0.54 1.02,-0.65 0.09,-2.1 0.24,-3.07 -1.79,-0.05 -3.59,-0.11 -5.37,-0.15 z m -15.57,-2.28 c 4.37,-1.97 10.23,1.33 9.62,6.41 0.55,4.39 -3.49,8.47 -7.93,7.46 -6.81,-0.63 -7.57,-11.39 -1.69,-13.87 m 0.93,2.48 c -2.45,1.77 -2.49,5.91 -0.63,8.13 2.37,2.34 6.65,0.12 6.34,-3.16 1.08,-3.27 -2.57,-7.08 -5.71,-4.97 z M 0,0 H 640 V 480 H 0 V 0 M 17.12,240.69 C 118.54,305.79 219.98,370.85 321.37,436 421.91,370.79 522.45,305.6 622.88,240.26 521.81,174.84 420.72,109.46 319.68,43.99 218.8,109.52 117.99,175.16 17.12,240.69 Z" />
  </g>
  <g id="#f8e509ff">
    <path fill="#f8e509" id="path17"
       d="M 17.12,240.69 C 117.99,175.16 218.8,109.52 319.68,43.99 420.72,109.46 521.81,174.84 622.88,240.26 522.45,305.6 421.91,370.79 321.37,436 219.98,370.85 118.54,305.79 17.12,240.69 M 273.55,123.53 c -26.57,11.73 -48.69,32.93 -61.86,58.79 l -0.33,0.02 c -3.16,6.78 -6.47,13.59 -8.17,20.91 -6.16,22.01 -7.08,45.59 -1.32,67.78 7.29,29.28 25.42,55.68 50.14,72.98 23.64,16.77 53.14,25.05 82.05,22.96 26.76,-1.76 52.84,-12.3 73.32,-29.61 16.46,-13.72 29.07,-31.76 37.03,-51.6 2.56,-6.39 4.49,-13.03 5.79,-19.78 6.72,-32.74 0.24,-68.01 -18.26,-95.91 -16.5,-25.38 -42.39,-44.41 -71.52,-52.66 -28.48,-8.24 -59.81,-6.01 -86.87,6.12 z" />
  </g>
  <g id="#2b49a3ff">
    <path fill="#2b49a3" id="path19"
       d="m 203.19,203.25 c 34.04,-3.36 68.67,-1.18 101.95,6.79 52.03,12.38 100.47,38.97 139.27,75.72 -7.96,19.84 -20.57,37.88 -37.03,51.6 -20.48,17.31 -46.56,27.85 -73.32,29.61 -28.91,2.09 -58.41,-6.19 -82.05,-22.96 -24.72,-17.3 -42.85,-43.7 -50.14,-72.98 -5.76,-22.19 -4.84,-45.77 1.32,-67.78 m 16.1,13.75 c -1.48,0.1 -2.95,0.22 -4.42,0.33 0.99,1.03 2.01,2.02 2.9,3.15 0.29,1.61 -0.39,3.22 -0.57,4.82 1.3,-0.67 2.59,-1.35 3.89,-2.01 1.33,0.72 2.66,1.45 3.99,2.18 -0.2,-1.53 -0.39,-3.05 -0.59,-4.57 1.1,-1.03 2.19,-2.05 3.29,-3.07 -1.49,-0.3 -2.98,-0.6 -4.47,-0.9 -0.61,-1.36 -1.23,-2.72 -1.84,-4.08 -0.74,1.38 -1.47,2.76 -2.18,4.15 m 138.57,17.31 c -0.78,0.1 -2.33,0.3 -3.11,0.4 0.71,0.75 1.42,1.5 2.14,2.27 -0.19,1.06 -0.38,2.13 -0.57,3.2 0.96,-0.46 1.92,-0.92 2.89,-1.38 0.88,0.52 1.78,1.03 2.67,1.55 -0.09,-0.79 -0.28,-2.37 -0.38,-3.16 0.55,-0.54 1.63,-1.63 2.17,-2.17 -0.75,-0.13 -2.25,-0.4 -3,-0.54 -0.31,-0.73 -0.92,-2.2 -1.23,-2.93 -0.53,0.92 -1.06,1.84 -1.58,2.76 m -78.24,5.61 c -0.65,1.29 -1.32,2.58 -1.97,3.88 -1.53,0.24 -3.07,0.48 -4.6,0.71 1.06,1.1 2.11,2.21 3.16,3.33 -0.31,1.48 -0.61,2.97 -0.9,4.46 1.32,-0.66 2.63,-1.34 3.95,-2 1.34,0.75 2.69,1.5 4.03,2.26 -0.2,-1.52 -0.4,-3.04 -0.6,-4.55 1.1,-1.05 2.2,-2.09 3.3,-3.12 -1.43,-0.25 -2.86,-0.48 -4.28,-0.71 -0.69,-1.43 -1.39,-2.85 -2.09,-4.26 m 44.96,16.5 c -1.49,0.15 -2.98,0.31 -4.47,0.48 1.02,1.07 2.05,2.16 3.08,3.24 -0.25,1.55 -0.51,3.1 -0.77,4.66 1.3,-0.67 2.61,-1.33 3.92,-2 1.36,0.71 2.71,1.44 4.08,2.17 -0.19,-1.09 -0.57,-3.28 -0.76,-4.37 1.13,-1.1 2.27,-2.19 3.42,-3.27 -1.47,-0.29 -2.94,-0.57 -4.4,-0.85 -0.66,-1.38 -1.32,-2.77 -1.97,-4.15 -0.71,1.36 -1.42,2.72 -2.13,4.09 m -80.11,7.61 c 0.2,0.86 0.41,1.72 0.62,2.58 0.69,0.06 2.08,0.18 2.77,0.24 0.29,-0.87 0.58,-1.73 0.88,-2.58 -0.66,-0.72 -1.39,-1.35 -2.19,-1.89 -0.71,0.53 -1.4,1.08 -2.08,1.65 m -12.45,5.36 c -1.5,0.21 -3,0.41 -4.5,0.62 1.05,1.07 2.11,2.14 3.17,3.22 -0.29,1.51 -0.57,3.02 -0.86,4.54 1.34,-0.66 2.69,-1.3 4.03,-1.95 1.31,0.75 2.61,1.5 3.92,2.26 -0.2,-1.54 -0.38,-3.08 -0.56,-4.61 1.09,-1.02 2.18,-2.03 3.28,-3.05 -1.47,-0.27 -2.93,-0.54 -4.38,-0.81 -0.68,-1.39 -1.36,-2.79 -2.03,-4.18 -0.69,1.32 -1.38,2.63 -2.07,3.96 m 107.09,1 c -0.69,0.05 -2.07,0.15 -2.76,0.2 1.26,1.51 1.9,3.24 1.31,5.2 1.77,-1.22 3.59,-0.88 5.29,0.2 -0.12,-0.71 -0.35,-2.14 -0.47,-2.85 0.54,-0.53 1.62,-1.59 2.16,-2.12 -0.75,-0.14 -2.25,-0.41 -3,-0.55 -0.27,-0.69 -0.8,-2.07 -1.07,-2.76 -0.49,0.89 -0.98,1.78 -1.46,2.68 m -28.19,0.49 c 0.54,0.73 1.1,1.45 1.68,2.15 -0.16,0.7 -0.47,2.1 -0.62,2.8 1.73,-0.93 3.57,-1.23 5.26,0.03 -0.55,-2.01 0.43,-3.59 1.78,-4.95 -0.7,-0.09 -2.1,-0.27 -2.8,-0.36 -0.27,-0.69 -0.82,-2.09 -1.09,-2.79 -0.79,1.85 -2.19,2.97 -4.21,3.12 m -94.12,7.97 c -0.81,2.02 -2.46,3.27 -4.62,3.6 0.48,0.48 1.45,1.42 1.93,1.89 -0.05,0.76 -0.17,2.26 -0.22,3.01 1.88,-0.84 3.76,-0.6 5.54,0.38 -1.08,-2.32 0.36,-4.04 1.84,-5.62 -0.71,-0.04 -2.14,-0.13 -2.86,-0.17 -0.55,-1.03 -1.09,-2.05 -1.61,-3.09 m 41.87,0.5 c -0.64,1.91 -2.18,2.76 -4.09,2.97 1.45,1.35 1.99,3.07 1.45,5.02 0.84,-0.42 1.68,-0.85 2.53,-1.26 0.58,0.35 1.74,1.04 2.32,1.39 -0.45,-2.04 0.32,-3.72 1.85,-5.02 -2.08,-0.02 -3.3,-1.33 -4.06,-3.1 m 62.92,3.15 c 0.64,1.03 0.99,2.17 1.01,3.4 1.12,-0.16 2.24,-0.16 3.36,-0.03 0.34,-1.03 0.67,-2.06 1,-3.09 -0.88,-0.7 -1.7,-1.45 -2.47,-2.25 -0.82,0.86 -1.78,1.56 -2.9,1.97 m 91.68,1.06 c -1.24,0.15 -2.48,0.31 -3.72,0.46 0.89,0.93 1.77,1.89 2.67,2.83 -0.21,0.96 -0.62,2.87 -0.82,3.83 1.17,-0.59 2.36,-1.18 3.54,-1.76 1.11,0.65 2.23,1.3 3.35,1.95 -0.15,-0.97 -0.45,-2.91 -0.6,-3.89 0.96,-0.85 1.92,-1.68 2.88,-2.53 -1.32,-0.29 -2.63,-0.58 -3.93,-0.88 -0.3,-0.76 -0.89,-2.28 -1.18,-3.04 -0.75,0.99 -1.48,2 -2.19,3.03 m 17.3,0.19 c -0.53,0.08 -1.59,0.25 -2.12,0.33 0.73,1.08 1.22,2.25 1.07,3.59 1.15,-0.11 2.3,-0.12 3.46,-0.05 0.29,-1.09 0.65,-2.16 1.09,-3.19 -1.09,-0.58 -1.98,-1.38 -2.67,-2.4 -0.2,0.43 -0.62,1.29 -0.83,1.72 m -101.78,8.61 c -0.6,1.18 -1.2,2.36 -1.8,3.54 -1.33,0.14 -2.67,0.28 -3.99,0.43 0.93,0.94 1.86,1.89 2.79,2.84 -0.18,0.99 -0.56,2.98 -0.75,3.97 0.85,-0.46 2.54,-1.39 3.39,-1.85 1.15,0.64 2.3,1.29 3.45,1.94 -0.19,-1.31 -0.38,-2.61 -0.56,-3.91 0.98,-0.86 1.95,-1.72 2.92,-2.59 -1.31,-0.26 -2.6,-0.53 -3.89,-0.8 -0.52,-1.2 -1.04,-2.38 -1.56,-3.57 m -79.62,3.96 c 0.51,0.5 1.53,1.5 2.04,2.01 -0.15,0.74 -0.45,2.24 -0.59,2.98 0.98,-0.43 1.96,-0.86 2.95,-1.29 0.53,0.37 1.59,1.11 2.12,1.47 -0.46,-2.04 0.2,-3.75 1.84,-4.98 -1.91,-0.36 -3.46,-1.29 -3.97,-3.26 -0.87,1.81 -2.32,2.95 -4.39,3.07 m 164.68,-0.38 c 0.68,1.02 1.04,2.14 1.08,3.37 1.29,-0.3 2.58,-0.16 3.84,0.23 -0.06,-1.3 0.38,-2.44 1.24,-3.41 -1.14,-0.52 -2.17,-1.22 -3.05,-2.09 -0.89,0.88 -1.92,1.52 -3.11,1.9 m -2.02,8.97 c -0.73,0.1 -2.21,0.31 -2.94,0.41 0.68,0.71 1.36,1.41 2.06,2.12 -0.12,0.79 -0.37,2.35 -0.49,3.13 0.66,-0.34 1.98,-1.03 2.64,-1.38 0.64,0.37 1.92,1.11 2.56,1.48 -0.08,-0.79 -0.25,-2.37 -0.34,-3.16 0.71,-0.57 1.42,-1.14 2.14,-1.7 -1.95,-0.42 -3.6,-1.34 -4.16,-3.4 -0.52,0.82 -1,1.65 -1.47,2.5 m -132.22,-1.19 c -0.69,1.28 -1.37,2.57 -2.05,3.85 -1.51,0.18 -3.02,0.35 -4.53,0.52 1.08,1.19 2.16,2.38 3.24,3.57 -0.25,1.08 -0.75,3.23 -1,4.31 1.35,-0.66 2.71,-1.31 4.08,-1.95 1.31,0.75 2.63,1.5 3.95,2.26 -0.21,-1.54 -0.42,-3.08 -0.63,-4.62 1.09,-1.01 2.19,-2.02 3.29,-3.03 -1.48,-0.31 -2.96,-0.62 -4.43,-0.93 -0.64,-1.33 -1.27,-2.66 -1.92,-3.98 m 72.7,5.65 c 0.6,1.03 0.96,2.14 0.98,3.34 1.14,-0.21 2.28,-0.16 3.41,0.15 0.28,-1.12 0.64,-2.22 1.04,-3.3 -0.82,-0.67 -1.63,-1.35 -2.43,-2.02 -0.89,0.79 -1.91,1.39 -3,1.83 m 18.09,0.07 c 0.5,1.03 0.83,2.12 1,3.26 1.11,-0.17 2.21,-0.13 3.32,0.12 0.36,-1.1 0.71,-2.19 1.09,-3.27 -0.87,-0.6 -1.68,-1.26 -2.44,-1.99 -0.94,0.69 -1.96,1.3 -2.97,1.88 m 20.97,-0.76 c -0.57,0.06 -1.71,0.17 -2.27,0.23 0.84,1.26 1.31,2.66 1.15,4.21 1.43,-0.84 2.88,-0.57 4.27,0.24 -0.16,-0.81 -0.31,-1.61 -0.45,-2.4 0.46,-0.37 1.36,-1.1 1.82,-1.47 -1.58,-0.47 -2.92,-1.3 -3.52,-2.91 -0.25,0.52 -0.75,1.57 -1,2.1 m 11.3,-1.61 c -0.8,1.06 -1.88,1.77 -3.11,2.21 0.71,1.04 1.07,2.2 1.09,3.46 1.19,-0.27 2.4,-0.22 3.58,0.11 0.08,-1.36 0.65,-2.56 1.42,-3.65 -0.53,-0.12 -1.58,-0.34 -2.11,-0.45 -0.22,-0.42 -0.65,-1.26 -0.87,-1.68 M 388,322.84 c 1.11,1.27 1.67,2.71 1.21,4.44 1.62,-0.8 3.26,-0.84 4.81,0.16 -0.52,-1.96 0.55,-3.37 1.98,-4.54 -0.7,-0.08 -2.11,-0.24 -2.82,-0.32 -0.29,-0.63 -0.87,-1.89 -1.16,-2.52 -0.79,1.68 -2.2,2.58 -4.02,2.78 m -25.1,6.44 c -1.46,0.19 -2.92,0.36 -4.37,0.54 1.02,1.07 2.04,2.15 3.07,3.23 -0.26,1.5 -0.51,3.01 -0.77,4.53 1.34,-0.66 2.68,-1.32 4.02,-1.98 1.28,0.75 2.55,1.51 3.84,2.28 -0.2,-1.52 -0.4,-3.04 -0.59,-4.56 1.12,-1.04 2.25,-2.08 3.38,-3.13 -1.42,-0.25 -2.84,-0.5 -4.25,-0.75 -0.63,-1.18 -1.24,-2.38 -1.9,-3.53 -1.27,0.69 -1.64,2.25 -2.43,3.37 m 25.7,5.05 c 1.13,1.23 1.68,2.68 1.18,4.37 1.48,-0.73 2.96,-0.7 4.42,0.09 -0.25,-1.7 0.26,-3.12 1.53,-4.27 -1.67,-0.34 -3.02,-1.18 -3.51,-2.9 -0.79,1.44 -1.9,2.53 -3.62,2.71 m -60.43,1.99 c -0.68,0.52 -1.35,1.04 -2.01,1.58 0.08,0.7 0.22,2.12 0.3,2.83 0.99,-0.06 1.98,-0.12 2.98,-0.16 0.31,-0.84 0.7,-1.67 1.01,-2.48 -0.77,-0.59 -1.53,-1.18 -2.28,-1.77 z M 273.55,123.53 c 27.06,-12.13 58.39,-14.36 86.87,-6.12 29.13,8.25 55.02,27.28 71.52,52.66 18.5,27.9 24.98,63.17 18.26,95.91 -20.58,-18.02 -42.81,-34.24 -66.83,-47.37 -28.41,-15.6 -59.34,-26.69 -91.29,-32.29 -26.49,-4.7 -53.56,-5.82 -80.39,-4 13.17,-25.86 35.29,-47.06 61.86,-58.79 m 86.51,75.57 c 0.92,0.95 1.83,1.92 2.75,2.89 -0.27,1.32 -0.54,2.65 -0.8,3.98 1.22,-0.59 2.44,-1.18 3.67,-1.77 1.16,0.67 2.33,1.32 3.5,1.99 -0.2,-1.36 -0.39,-2.72 -0.58,-4.07 0.99,-0.9 1.98,-1.8 2.97,-2.7 -1.35,-0.25 -2.7,-0.51 -4.04,-0.77 -0.52,-1.22 -1.03,-2.45 -1.54,-3.67 -0.93,2.74 -3.02,4.27 -5.93,4.12 z" />
  </g>
  <g id="#fefffdff">
    <path fill="#fefffd" id="path55"
       d="m 328.17,336.32 c 0.75,0.59 1.51,1.18 2.28,1.77 -0.31,0.81 -0.7,1.64 -1.01,2.48 -1,0.04 -1.99,0.1 -2.98,0.16 -0.08,-0.71 -0.22,-2.13 -0.3,-2.83 0.66,-0.54 1.33,-1.06 2.01,-1.58 z m 60.43,-1.99 c 1.72,-0.18 2.83,-1.27 3.62,-2.71 0.49,1.72 1.84,2.56 3.51,2.9 -1.27,1.15 -1.78,2.57 -1.53,4.27 -1.46,-0.79 -2.94,-0.82 -4.42,-0.09 0.5,-1.69 -0.05,-3.14 -1.18,-4.37 z m -25.7,-5.05 c 0.79,-1.12 1.16,-2.68 2.43,-3.37 0.66,1.15 1.27,2.35 1.9,3.53 1.41,0.25 2.83,0.5 4.25,0.75 -1.13,1.05 -2.26,2.09 -3.38,3.13 0.19,1.52 0.39,3.04 0.59,4.56 -1.29,-0.77 -2.56,-1.53 -3.84,-2.28 -1.34,0.66 -2.68,1.32 -4.02,1.98 0.26,-1.52 0.51,-3.03 0.77,-4.53 -1.03,-1.08 -2.05,-2.16 -3.07,-3.23 1.45,-0.18 2.91,-0.35 4.37,-0.54 z m 25.1,-6.44 c 1.82,-0.2 3.23,-1.1 4.02,-2.78 0.29,0.63 0.87,1.89 1.16,2.52 0.71,0.08 2.12,0.24 2.82,0.32 -1.43,1.17 -2.5,2.58 -1.98,4.54 -1.55,-1 -3.19,-0.96 -4.81,-0.16 0.46,-1.73 -0.1,-3.17 -1.21,-4.44 z m 14.67,-15.77 c 0.22,0.42 0.65,1.26 0.87,1.68 0.53,0.11 1.58,0.33 2.11,0.45 -0.77,1.09 -1.34,2.29 -1.42,3.65 -1.18,-0.33 -2.39,-0.38 -3.58,-0.11 -0.02,-1.26 -0.38,-2.42 -1.09,-3.46 1.23,-0.44 2.31,-1.15 3.11,-2.21 z m -11.3,1.61 c 0.25,-0.53 0.75,-1.58 1,-2.1 0.6,1.61 1.94,2.44 3.52,2.91 -0.46,0.37 -1.36,1.1 -1.82,1.47 0.14,0.79 0.29,1.59 0.45,2.4 -1.39,-0.81 -2.84,-1.08 -4.27,-0.24 0.16,-1.55 -0.31,-2.95 -1.15,-4.21 0.56,-0.06 1.7,-0.17 2.27,-0.23 z m -20.97,0.76 c 1.01,-0.58 2.03,-1.19 2.97,-1.88 0.76,0.73 1.57,1.39 2.44,1.99 -0.38,1.08 -0.73,2.17 -1.09,3.27 -1.11,-0.25 -2.21,-0.29 -3.32,-0.12 -0.17,-1.14 -0.5,-2.23 -1,-3.26 z m -18.09,-0.07 c 1.09,-0.44 2.11,-1.04 3,-1.83 0.8,0.67 1.61,1.35 2.43,2.02 -0.4,1.08 -0.76,2.18 -1.04,3.3 -1.13,-0.31 -2.27,-0.36 -3.41,-0.15 -0.02,-1.2 -0.38,-2.31 -0.98,-3.34 z m -72.7,-5.65 c 0.65,1.32 1.28,2.65 1.92,3.98 1.47,0.31 2.95,0.62 4.43,0.93 -1.1,1.01 -2.2,2.02 -3.29,3.03 0.21,1.54 0.42,3.08 0.63,4.62 -1.32,-0.76 -2.64,-1.51 -3.95,-2.26 -1.37,0.64 -2.73,1.29 -4.08,1.95 0.25,-1.08 0.75,-3.23 1,-4.31 -1.08,-1.19 -2.16,-2.38 -3.24,-3.57 1.51,-0.17 3.02,-0.34 4.53,-0.52 0.68,-1.28 1.36,-2.57 2.05,-3.85 z m 132.22,1.19 c 0.47,-0.85 0.95,-1.68 1.47,-2.5 0.56,2.06 2.21,2.98 4.16,3.4 -0.72,0.56 -1.43,1.13 -2.14,1.7 0.09,0.79 0.26,2.37 0.34,3.16 -0.64,-0.37 -1.92,-1.11 -2.56,-1.48 -0.66,0.35 -1.98,1.04 -2.64,1.38 0.12,-0.78 0.37,-2.34 0.49,-3.13 -0.7,-0.71 -1.38,-1.41 -2.06,-2.12 0.73,-0.1 2.21,-0.31 2.94,-0.41 z m 2.02,-8.97 c 1.19,-0.38 2.22,-1.02 3.11,-1.9 0.88,0.87 1.91,1.57 3.05,2.09 -0.86,0.97 -1.3,2.11 -1.24,3.41 -1.26,-0.39 -2.55,-0.53 -3.84,-0.23 -0.04,-1.23 -0.4,-2.35 -1.08,-3.37 z m -164.68,0.38 c 2.07,-0.12 3.52,-1.26 4.39,-3.07 0.51,1.97 2.06,2.9 3.97,3.26 -1.64,1.23 -2.3,2.94 -1.84,4.98 -0.53,-0.36 -1.59,-1.1 -2.12,-1.47 -0.99,0.43 -1.97,0.86 -2.95,1.29 0.14,-0.74 0.44,-2.24 0.59,-2.98 -0.51,-0.51 -1.53,-1.51 -2.04,-2.01 z m 79.62,-3.96 c 0.52,1.19 1.04,2.37 1.56,3.57 1.29,0.27 2.58,0.54 3.89,0.8 -0.97,0.87 -1.94,1.73 -2.92,2.59 0.18,1.3 0.37,2.6 0.56,3.91 -1.15,-0.65 -2.3,-1.3 -3.45,-1.94 -0.85,0.46 -2.54,1.39 -3.39,1.85 0.19,-0.99 0.57,-2.98 0.75,-3.97 -0.93,-0.95 -1.86,-1.9 -2.79,-2.84 1.32,-0.15 2.66,-0.29 3.99,-0.43 0.6,-1.18 1.2,-2.36 1.8,-3.54 z m 101.78,-8.61 c 0.21,-0.43 0.63,-1.29 0.83,-1.72 0.69,1.02 1.58,1.82 2.67,2.4 -0.44,1.03 -0.8,2.1 -1.09,3.19 -1.16,-0.07 -2.31,-0.06 -3.46,0.05 0.15,-1.34 -0.34,-2.51 -1.07,-3.59 0.53,-0.08 1.59,-0.25 2.12,-0.33 z m -17.3,-0.19 c 0.71,-1.03 1.44,-2.04 2.19,-3.03 0.29,0.76 0.88,2.28 1.18,3.04 1.3,0.3 2.61,0.59 3.93,0.88 -0.96,0.85 -1.92,1.68 -2.88,2.53 0.15,0.98 0.45,2.92 0.6,3.89 -1.12,-0.65 -2.24,-1.3 -3.35,-1.95 -1.18,0.58 -2.37,1.17 -3.54,1.76 0.2,-0.96 0.61,-2.87 0.82,-3.83 -0.9,-0.94 -1.78,-1.9 -2.67,-2.83 1.24,-0.15 2.48,-0.31 3.72,-0.46 z m -91.68,-1.06 c 1.12,-0.41 2.08,-1.11 2.9,-1.97 0.77,0.8 1.59,1.55 2.47,2.25 -0.33,1.03 -0.66,2.06 -1,3.09 -1.12,-0.13 -2.24,-0.13 -3.36,0.03 -0.02,-1.23 -0.37,-2.37 -1.01,-3.4 z m -62.92,-3.15 c 0.76,1.77 1.98,3.08 4.06,3.1 -1.53,1.3 -2.3,2.98 -1.85,5.02 -0.58,-0.35 -1.74,-1.04 -2.32,-1.39 -0.85,0.41 -1.69,0.84 -2.53,1.26 0.54,-1.95 0,-3.67 -1.45,-5.02 1.91,-0.21 3.45,-1.06 4.09,-2.97 z m -41.87,-0.5 c 0.52,1.04 1.06,2.06 1.61,3.09 0.72,0.04 2.15,0.13 2.86,0.17 -1.48,1.58 -2.92,3.3 -1.84,5.62 -1.78,-0.98 -3.66,-1.22 -5.54,-0.38 0.05,-0.75 0.17,-2.25 0.22,-3.01 -0.48,-0.47 -1.45,-1.41 -1.93,-1.89 2.16,-0.33 3.81,-1.58 4.62,-3.6 z m 94.12,-7.97 c 2.02,-0.15 3.42,-1.27 4.21,-3.12 0.27,0.7 0.82,2.1 1.09,2.79 0.7,0.09 2.1,0.27 2.8,0.36 -1.35,1.36 -2.33,2.94 -1.78,4.95 -1.69,-1.26 -3.53,-0.96 -5.26,-0.03 0.15,-0.7 0.46,-2.1 0.62,-2.8 -0.58,-0.7 -1.14,-1.42 -1.68,-2.15 z m 28.19,-0.49 c 0.48,-0.9 0.97,-1.79 1.46,-2.68 0.27,0.69 0.8,2.07 1.07,2.76 0.75,0.14 2.25,0.41 3,0.55 -0.54,0.53 -1.62,1.59 -2.16,2.12 0.12,0.71 0.35,2.14 0.47,2.85 -1.7,-1.08 -3.52,-1.42 -5.29,-0.2 0.59,-1.96 -0.05,-3.69 -1.31,-5.2 0.69,-0.05 2.07,-0.15 2.76,-0.2 z m -107.09,-1 c 0.69,-1.33 1.38,-2.64 2.07,-3.96 0.67,1.39 1.35,2.79 2.03,4.18 1.45,0.27 2.91,0.54 4.38,0.81 -1.1,1.02 -2.19,2.03 -3.28,3.05 0.18,1.53 0.36,3.07 0.56,4.61 -1.31,-0.76 -2.61,-1.51 -3.92,-2.26 -1.34,0.65 -2.69,1.29 -4.03,1.95 0.29,-1.52 0.57,-3.03 0.86,-4.54 -1.06,-1.08 -2.12,-2.15 -3.17,-3.22 1.5,-0.21 3,-0.41 4.5,-0.62 z m 12.45,-5.36 c 0.68,-0.57 1.37,-1.12 2.08,-1.65 0.8,0.54 1.53,1.17 2.19,1.89 -0.3,0.85 -0.59,1.71 -0.88,2.58 -0.69,-0.06 -2.08,-0.18 -2.77,-0.24 -0.21,-0.86 -0.42,-1.72 -0.62,-2.58 z m 185.92,-5.66 c 1.31,-0.79 3.06,-1.22 4.2,0.13 4.29,3.17 -1.65,11.32 -5.8,7.63 -2.63,-2.26 -0.82,-6.15 1.6,-7.76 z m -105.81,-1.95 c 0.71,-1.37 1.42,-2.73 2.13,-4.09 0.65,1.38 1.31,2.77 1.97,4.15 1.46,0.28 2.93,0.56 4.4,0.85 -1.15,1.08 -2.29,2.17 -3.42,3.27 0.19,1.09 0.57,3.28 0.76,4.37 -1.37,-0.73 -2.72,-1.46 -4.08,-2.17 -1.31,0.67 -2.62,1.33 -3.92,2 0.26,-1.56 0.52,-3.11 0.77,-4.66 -1.03,-1.08 -2.06,-2.17 -3.08,-3.24 1.49,-0.17 2.98,-0.33 4.47,-0.48 z m -44.96,-16.5 c 0.7,1.41 1.4,2.83 2.09,4.26 1.42,0.23 2.85,0.46 4.28,0.71 -1.1,1.03 -2.2,2.07 -3.3,3.12 0.2,1.51 0.4,3.03 0.6,4.55 -1.34,-0.76 -2.69,-1.51 -4.03,-2.26 -1.32,0.66 -2.63,1.34 -3.95,2 0.29,-1.49 0.59,-2.98 0.9,-4.46 -1.05,-1.12 -2.1,-2.23 -3.16,-3.33 1.53,-0.23 3.07,-0.47 4.6,-0.71 0.65,-1.3 1.32,-2.59 1.97,-3.88 z m 78.24,-5.61 c 0.52,-0.92 1.05,-1.84 1.58,-2.76 0.31,0.73 0.92,2.2 1.23,2.93 0.75,0.14 2.25,0.41 3,0.54 -0.54,0.54 -1.62,1.63 -2.17,2.17 0.1,0.79 0.29,2.37 0.38,3.16 -0.89,-0.52 -1.79,-1.03 -2.67,-1.55 -0.97,0.46 -1.93,0.92 -2.89,1.38 0.19,-1.07 0.38,-2.14 0.57,-3.2 -0.72,-0.77 -1.43,-1.52 -2.14,-2.27 0.78,-0.1 2.33,-0.3 3.11,-0.4 z m 24.31,-10.41 c 1.58,1.11 4.23,1.6 4.52,3.85 -1.25,2.96 -4.32,0.19 -6.24,-0.46 0.57,-1.14 1.14,-2.27 1.72,-3.39 z M 219.29,217 c 0.71,-1.39 1.44,-2.77 2.18,-4.15 0.61,1.36 1.23,2.72 1.84,4.08 1.49,0.3 2.98,0.6 4.47,0.9 -1.1,1.02 -2.19,2.04 -3.29,3.07 0.2,1.52 0.39,3.04 0.59,4.57 -1.33,-0.73 -2.66,-1.46 -3.99,-2.18 -1.3,0.66 -2.59,1.34 -3.89,2.01 0.18,-1.6 0.86,-3.21 0.57,-4.82 -0.89,-1.13 -1.91,-2.12 -2.9,-3.15 1.47,-0.11 2.94,-0.23 4.42,-0.33 z m 132.83,-5.88 c 2.52,-1.47 5.85,1.06 5.46,3.84 -0.17,2.74 -2.29,6.28 -5.5,5.25 -4.01,-1.22 -3.01,-7.34 0.04,-9.09 z m -15.05,-7.11 c 1.65,0.64 3.39,1.14 4.86,2.18 0.74,3.98 -3.93,2 -5.95,1.39 0.35,-1.2 0.71,-2.39 1.09,-3.57 z m -13.97,-4.57 c 1.6,0.78 4.68,0.61 4.36,3.08 -0.46,2.54 -3.61,1.13 -5.31,1.05 0.3,-1.39 0.62,-2.76 0.95,-4.13 z m 36.96,-0.34 c 2.91,0.15 5,-1.38 5.93,-4.12 0.51,1.22 1.02,2.45 1.54,3.67 1.34,0.26 2.69,0.52 4.04,0.77 -0.99,0.9 -1.98,1.8 -2.97,2.7 0.19,1.35 0.38,2.71 0.58,4.07 -1.17,-0.67 -2.34,-1.32 -3.5,-1.99 -1.23,0.59 -2.45,1.18 -3.67,1.77 0.26,-1.33 0.53,-2.66 0.8,-3.98 -0.92,-0.97 -1.83,-1.94 -2.75,-2.89 z m -108.87,-2.01 c 0.16,-3.22 0.33,-6.43 0.54,-9.65 1.72,0.5 3.99,0.17 5.21,1.75 0.78,2.08 0.59,4.51 -0.17,6.56 -1.05,2.03 -3.75,0.96 -5.58,1.34 z m -15.22,-10.18 c 1.78,0.04 3.58,0.1 5.37,0.15 -0.15,0.97 0.78,2.42 -0.24,3.07 -1.65,0.41 -3.37,0.39 -5.04,0.54 -0.04,-1.25 -0.07,-2.51 -0.09,-3.76 z m -14.64,0.2 c 3.14,-2.11 6.79,1.7 5.71,4.97 0.31,3.28 -3.97,5.5 -6.34,3.16 -1.86,-2.22 -1.82,-6.36 0.63,-8.13 z m -9.97,-4.77 0.33,-0.02 c 26.83,-1.82 53.9,-0.7 80.39,4 31.95,5.6 62.88,16.69 91.29,32.29 24.02,13.13 46.25,29.35 66.83,47.37 -1.3,6.75 -3.23,13.39 -5.79,19.78 -38.8,-36.75 -87.24,-63.34 -139.27,-75.72 -33.28,-7.97 -67.91,-10.15 -101.95,-6.79 1.7,-7.32 5.01,-14.13 8.17,-20.91 m 9.04,2.29 c -5.88,2.48 -5.12,13.24 1.69,13.87 4.44,1.01 8.48,-3.07 7.93,-7.46 0.61,-5.08 -5.25,-8.38 -9.62,-6.41 m 12.81,-0.1 c -0.07,4.68 -0.16,9.36 -0.16,14.05 0.71,-0.02 2.12,-0.05 2.82,-0.07 0.01,-2.06 0.02,-4.12 0.06,-6.18 3.35,0.53 4.61,3.83 6.29,6.32 0.83,0.01 2.49,0.02 3.33,0.03 -1.22,-2.21 -2.59,-4.35 -4.3,-6.22 2.98,-0.77 4.59,-4.57 2.17,-6.87 -3.05,-1.81 -6.84,-0.81 -10.21,-1.06 m 15.81,0.67 c -0.25,4.67 -0.48,9.35 -0.7,14.02 2.83,0.02 5.79,0.67 8.56,-0.2 4.02,-1.95 4.2,-7.7 2.33,-11.22 -2.22,-3.35 -6.82,-2.05 -10.19,-2.6 m 15.48,0.8 c -0.41,4.66 -0.87,9.33 -1.29,13.99 3.56,0.35 7.11,0.68 10.68,0.96 0,-0.59 0.02,-1.77 0.02,-2.37 -2.57,-0.21 -5.15,-0.44 -7.72,-0.67 0.1,-1.27 0.19,-2.54 0.29,-3.8 2.35,0.21 4.69,0.44 7.04,0.66 l 0.27,-2.36 c -2.34,-0.24 -4.67,-0.47 -7,-0.7 0.07,-0.76 0.22,-2.26 0.29,-3.01 2.5,0.21 5,0.46 7.5,0.69 0.05,-0.6 0.17,-1.8 0.22,-2.4 -3.43,-0.36 -6.87,-0.68 -10.3,-0.99 m 14.81,1.72 c -0.67,4.67 -1.35,9.34 -1.98,14.02 0.64,0.08 1.93,0.23 2.57,0.31 0.5,-3.56 1.01,-7.13 1.66,-10.67 0.36,3.67 0.68,7.35 1.05,11.02 0.9,0.12 1.8,0.24 2.71,0.37 1.4,-3.4 2.8,-6.79 4.28,-10.15 -0.46,3.55 -1.05,7.08 -1.6,10.61 0.69,0.08 2.06,0.22 2.75,0.3 0.59,-4.59 1.28,-9.15 1.93,-13.73 -1.4,-0.2 -2.79,-0.39 -4.18,-0.58 -1.29,2.99 -2.59,5.98 -3.9,8.96 -0.38,-3.25 -0.75,-6.51 -1.11,-9.77 -1.39,-0.24 -2.79,-0.47 -4.18,-0.69 m 24.8,6.98 c -0.78,3.26 -1.55,6.53 -2.24,9.81 2.68,0.14 6.01,2.55 8.3,0.38 -1.97,-0.61 -3.97,-1.12 -5.97,-1.61 0.14,-0.67 0.44,-2.01 0.58,-2.68 1.65,0.39 3.31,0.79 4.97,1.18 0.07,-0.41 0.23,-1.24 0.31,-1.66 -1.66,-0.42 -3.32,-0.83 -4.97,-1.25 0.18,-0.52 0.53,-1.56 0.71,-2.07 1.82,0.42 3.64,0.84 5.48,1.23 -0.19,-3.2 -4.98,-2.22 -7.17,-3.33 m 16.8,1.89 c -1.1,4.54 -2.2,9.07 -3.29,13.61 0.92,0.22 1.84,0.45 2.77,0.68 0.39,-1.69 0.79,-3.37 1.19,-5.06 1.95,0.31 3.96,1.13 5.95,0.66 3.05,-0.98 3.85,-5.5 1.43,-7.54 -2.52,-1.26 -5.34,-1.68 -8.05,-2.35 m 14.4,4.32 c -1.57,4.39 -3.13,8.79 -4.69,13.18 0.63,0.25 1.89,0.74 2.52,0.98 0.77,-2.04 1.56,-4.08 2.55,-6.03 2.39,2.15 2.82,5.41 3.76,8.32 0.75,0.21 2.27,0.64 3.02,0.85 -0.52,-2.41 -1.2,-4.79 -2.16,-7.06 3.35,0.21 6.04,-3.47 3.89,-6.37 -2.54,-2.06 -5.92,-2.66 -8.89,-3.87 m 16.11,7.64 c -5.29,1.96 -6.94,10.79 -1.33,13.4 4.43,2.73 10.13,-1.01 10.25,-5.98 1.13,-4.89 -4.49,-8.95 -8.92,-7.42 m 11,17.99 c 2.03,2.87 5.69,3.52 8.98,3.34 0.85,-1.72 1.73,-3.44 2.6,-5.15 -2.09,-0.67 -5.27,-4.13 -6.64,-0.9 1.13,0.67 2.27,1.34 3.4,2.03 -1.28,1.6 -3.57,1.62 -5.14,0.47 -3.84,-2.63 -0.12,-10.14 4.3,-8.49 1.85,0.35 2.26,2.3 2.81,3.8 0.65,0.17 1.95,0.49 2.6,0.65 0.11,-3.16 -1.76,-5.99 -4.86,-6.8 -6.05,-2.59 -11.76,6.12 -8.05,11.05 m 11.9,6.56 c 0.61,0.32 1.84,0.96 2.46,1.28 0.97,-1.85 1.97,-3.69 3,-5.5 2.7,2.04 2.18,5.59 2.65,8.55 0.77,0.36 2.29,1.08 3.05,1.44 -0.19,-2.5 -0.53,-4.99 -1.17,-7.41 3.18,0.87 6.17,-2.24 4.98,-5.37 -2.16,-2.7 -5.63,-3.76 -8.56,-5.38 -2.17,4.11 -4.28,8.25 -6.41,12.39 m 21.17,-4.08 c -2.41,4 -4.85,7.98 -7.28,11.98 3.03,1.83 6.06,3.66 9.09,5.49 0.29,-0.51 0.88,-1.51 1.17,-2.02 -2.22,-1.3 -4.43,-2.62 -6.65,-3.92 0.64,-1.13 1.29,-2.25 1.96,-3.37 2.01,1.23 4.01,2.48 6.03,3.71 0.32,-0.5 0.95,-1.49 1.27,-1.99 -2,-1.24 -4,-2.46 -5.99,-3.71 0.41,-0.67 1.22,-2.03 1.63,-2.71 2.13,1.33 4.25,2.68 6.38,4.01 0.3,-0.5 0.89,-1.51 1.18,-2.01 -2.93,-1.83 -5.85,-3.66 -8.79,-5.46 m 10.15,11.69 c -1.29,3.48 2.7,5.65 4.16,8.3 -1.74,3.66 -6.09,-0.09 -5.25,-3.06 -0.85,-0.41 -1.69,-0.81 -2.53,-1.21 -0.07,1.83 -0.56,3.94 0.76,5.48 2.03,2.78 7.33,4.42 9.25,0.69 1.83,-4.07 -3.36,-6.34 -4.26,-9.91 2.62,-0.4 4.97,1.1 4.79,3.94 0.84,0.34 1.7,0.69 2.56,1.04 -0.06,-1.92 0.2,-4.21 -1.55,-5.5 -2.07,-2.18 -6.47,-3.09 -7.93,0.23 m 11.84,10.96 c 0.92,2.15 3.48,3.63 3.31,6.16 -3.14,1.77 -5.3,-1.91 -5.14,-4.66 -0.73,-0.27 -1.46,-0.54 -2.18,-0.8 -0.13,1.2 -0.21,2.41 -0.22,3.63 0.98,4.13 7.77,7.12 10.16,2.54 1.86,-4.05 -3.56,-6.22 -3.93,-9.98 2.59,0 4.84,1.55 4.48,4.35 0.94,0.29 2.47,1.66 2.61,-0.17 0.78,-3.29 -2.61,-5.92 -5.51,-6.46 -2.81,-0.56 -5.06,3.02 -3.58,5.39 m 12.03,3.96 c -4.46,2.05 -6.85,8.89 -2.52,12.3 3.66,3.51 9.97,1.32 11.29,-3.4 2.6,-5.16 -3.67,-11.26 -8.77,-8.9 z" />
  </g>
</svg>
