<?xml version="1.0" encoding="UTF-8" standalone="no"?>
<svg
   width="640pt"
   height="480pt"
   viewBox="0 0 640 480"
   version="1.1"
   id="svg59"
   sodipodi:docname="ht.svg"
   inkscape:version="1.4.3 (0d15f75, 2025-12-25)"
   xmlns:inkscape="http://www.inkscape.org/namespaces/inkscape"
   xmlns:sodipodi="http://sodipodi.sourceforge.net/DTD/sodipodi-0.dtd"
   xmlns="http://www.w3.org/2000/svg"
   xmlns:svg="http://www.w3.org/2000/svg">
  <defs
     id="defs59" />
  <sodipodi:namedview
     id="namedview59"
     pagecolor="#ffffff"
     bordercolor="#000000"
     borderopacity="0.25"
     inkscape:showpageshadow="2"
     inkscape:pageopacity="0.0"
     inkscape:pagecheckerboard="0"
     inkscape:deskcolor="#d1d1d1"
     inkscape:document-units="pt"
     inkscape:zoom="1.8234375"
     inkscape:cx="426.39246"
     inkscape:cy="320"
     inkscape:window-width="2560"
     inkscape:window-height="1369"
     inkscape:window-x="-8"
     inkscape:window-y="-8"
     inkscape:window-maximized="1"
     inkscape:current-layer="svg59" />
  <g
     id="#ffffffff"
     style="display:inline">
    <path
       fill="#ffffff"
       id="path4"
       d="m 328.14,232.46 c 1.37,0.11 1.61,0.79 0.74,2.04 -1.37,-0.12 -1.62,-0.8 -0.74,-2.04 z m 12.39,-36.32 c 1.05,-0.86 3.63,0.13 3.26,1.61 -1.05,0.53 -3.52,-0.21 -3.26,-1.61 z m -96.34,-16.21 c 4.6,-0.34 9.2,-0.22 13.81,-0.21 41.33,0 82.67,0 124,0 4.6,-0.01 9.21,-0.13 13.81,0.21 0.38,20.01 0.37,40.06 -0.01,60.07 -0.3,14.97 0.1,29.95 -0.22,44.92 0.16,5.13 0.41,10.27 -0.09,15.4 0.11,-4.77 0.43,-9.57 -0.08,-14.32 -0.18,-2.02 -2.36,-2.82 -3.84,-3.76 -3.41,-2.1 -7.62,-1.92 -11.13,-3.74 -2.15,-1.12 -4.18,-2.46 -6.43,-3.36 2.04,-1.58 3.96,-3.31 5.7,-5.22 1.49,-1.69 3.24,-3.13 5.04,-4.48 1.98,1.34 3.57,3.84 6.23,3.68 1.39,0.01 2.78,-0.06 4.16,-0.21 -1.75,-0.82 -3.55,-1.51 -5.35,-2.18 -0.19,-1.45 -0.35,-2.99 -1.4,-4.11 -0.37,-0.19 -1.1,-0.57 -1.47,-0.76 -2.74,1.93 -5.2,4.22 -7.92,6.16 -3.51,2.79 -7.5,5.32 -12.13,5.41 l -0.88,-0.18 c 0.47,-2.59 0.97,-5.18 1.55,-7.76 1.93,-0.24 3.87,-0.44 5.82,-0.61 0.06,-2.55 -0.07,-5.11 -0.2,-7.65 -0.51,0.24 -1.53,0.74 -2.04,0.98 -0.09,-2.31 -0.16,-4.61 -0.2,-6.91 0.58,-0.36 1.75,-1.07 2.34,-1.42 -0.15,1.53 2.46,1.88 2.75,0.39 1.81,-2.27 -0.55,-4.71 -1.6,-6.71 2.78,-1.96 5.24,-4.36 7.07,-7.24 -3.64,0.73 -7.21,1.73 -10.82,2.56 -1.39,0.33 -2.77,0.68 -4.09,1.21 -1.18,0.89 -0.91,1.45 0.81,1.66 l -0.27,1.08 c -0.78,0.85 -1.61,0.95 -2.49,0.3 0.19,-1.85 0.38,-3.69 0.55,-5.54 1.68,-0.38 3.35,-0.8 5.04,-1.19 -0.91,-2.3 -2.42,-4.26 -4.2,-5.95 2.53,-2.45 4.77,-5.21 6.35,-8.37 -3.65,1.08 -7.22,2.44 -10.53,4.33 -2.07,0.67 -2.78,2.58 -3.03,4.57 -0.88,0.66 -1.76,1.32 -2.64,1.99 -0.2,-0.55 -0.59,-1.63 -0.79,-2.18 0,-0.42 0.01,-1.26 0.01,-1.69 0.1,-0.16 0.29,-0.5 0.39,-0.66 0.47,-0.22 1.43,-0.64 1.91,-0.85 0.92,-2.73 -2.15,-3.82 -3.79,-5.26 2.34,-2.8 4.34,-5.94 5.2,-9.53 -3.48,1.43 -6.27,4 -9.46,5.91 -1.33,0.55 -2.68,1.03 -4.01,1.54 0.52,1.27 1.05,2.54 1.6,3.81 -3.96,4.33 -7.96,8.62 -11.88,12.99 0.34,-1.82 0.65,-3.65 0.88,-5.49 -3.15,1.95 -4.02,5.8 -6.13,8.63 0.65,-3.94 3.89,-7.51 2.58,-11.63 -1.51,-0.28 -3.01,-0.63 -4.5,-1.01 -2.56,2.69 -3.22,6.42 -4.78,9.67 -0.49,-6.41 -0.23,-12.87 -1.25,-19.23 0.32,0.41 0.98,1.24 1.3,1.65 0.82,-0.53 1.64,-1.06 2.48,-1.58 0.13,1.34 0.28,2.69 0.45,4.04 1.92,-3.83 2.99,-8.03 2.08,-12.3 1.12,0.94 2.22,1.91 3.35,2.85 1.14,-0.43 2.29,-0.85 3.45,-1.25 -0.86,-2.19 -1.82,-4.34 -2.79,-6.49 3.92,2 8.38,4.58 12.8,2.41 -3.84,-4.12 -9.15,-6.18 -14.24,-8.26 4.31,0.78 8.91,1.31 12.47,4.11 1.9,1.58 4.36,1.81 6.7,2.17 -0.82,-3.31 -3.23,-5.69 -5.68,-7.9 2.93,0.08 5.85,0.23 8.78,0.31 -5.59,-7.07 -15.62,-4.39 -23.35,-3.99 4.84,-1.87 9.96,-2.58 15.11,-2.98 -3.67,-3.7 -9.42,-4.35 -14.24,-2.91 -3.48,1.05 -6.41,3.27 -9.33,5.34 0.21,-0.84 0.45,-1.68 0.72,-2.5 0.45,-0.25 1.36,-0.73 1.82,-0.97 -0.02,-0.67 -0.04,-2.02 -0.06,-2.7 -0.07,-1.55 -0.21,-3.1 -0.37,-4.64 -1.67,-0.15 -3.33,-0.29 -5,-0.4 -0.17,0.7 -0.5,2.11 -0.67,2.81 -0.55,1.08 -1.13,2.13 -1.71,3.19 0.53,0.17 1.59,0.51 2.12,0.67 0.12,1.55 0.21,3.1 0.3,4.65 -3.23,-2.16 -6.38,-4.64 -10.21,-5.63 -4.63,-1.16 -10.1,-0.52 -13.52,3.09 4.82,0.48 9.7,0.9 14.2,2.88 -5.96,-0.37 -12.18,-1.61 -17.96,0.48 -1.76,0.51 -2.92,1.96 -4,3.34 4.33,0.36 8.62,-0.37 12.83,-1.3 -4.16,2.06 -9.65,3.7 -10.18,9.15 2.53,-0.23 5.2,-0.5 7.17,-2.32 3.1,-2.67 7.29,-3.1 11.14,-3.9 -4.9,2.38 -10.2,4.4 -13.92,8.56 4.36,1.43 8.75,-0.24 12.69,-2.09 -0.75,1.98 -1.54,3.96 -2.26,5.96 2.57,1.29 4.98,0.11 6.94,-1.65 -1.06,4.24 0.18,8.44 2.01,12.27 0.18,-1.4 0.34,-2.79 0.5,-4.19 0.93,0.72 1.87,1.44 2.81,2.16 -0.93,5.29 -0.97,10.66 -0.98,16.01 -0.93,-2.38 -1.79,-4.8 -2.82,-7.14 -3.43,2.25 -0.12,6.75 -0.2,10 -1.99,-3.43 -1.5,-9.06 -5.65,-10.67 -0.48,4.45 1.72,8.47 2.78,12.66 -2.23,-3.16 -3.1,-7.41 -6.5,-9.6 0.03,1.52 0.11,3.05 0.2,4.57 -3.75,-4.09 -8,-7.82 -10.89,-12.62 0.44,-1.02 0.88,-2.05 1.32,-3.07 -1.32,-0.55 -2.64,-1.08 -3.93,-1.68 -3.12,-1.92 -6,-4.26 -9.39,-5.74 0.99,3.46 2.67,6.66 4.55,9.71 -1.5,1.27 -2.92,2.62 -4.29,4.03 1.2,0.88 2.41,1.75 3.61,2.64 l -0.14,0.84 c -0.19,0.92 -0.39,1.83 -0.59,2.75 -0.95,-0.53 -1.89,-1.07 -2.86,-1.56 0.03,-0.55 0.09,-1.65 0.13,-2.2 -0.81,-1.15 -1.94,-1.99 -3.11,-2.72 -3.5,-1.87 -7.22,-3.31 -11.02,-4.44 2.07,3.08 4,6.56 7.42,8.34 l -0.11,0.36 c -1.94,1.62 -4.02,3.26 -4.66,5.84 1.71,0.4 3.41,0.83 5.12,1.22 0.07,2.19 0.2,4.37 0.23,6.56 -0.89,-0.78 -1.72,-1.6 -2.51,-2.46 0.12,-0.52 0.37,-1.56 0.49,-2.08 -1.3,-0.33 -2.6,-0.63 -3.9,-0.94 -3.73,-0.91 -7.45,-1.83 -11.21,-2.6 2.27,2.86 4.88,5.41 7.45,7.99 -1.12,1.47 -2.26,2.97 -2.97,4.7 0.41,2.55 5.02,3 4.93,-0.06 1.91,2.8 1.81,6.2 1.57,9.43 -0.51,-0.23 -1.54,-0.69 -2.05,-0.92 -0.41,2.51 -0.74,5.03 -0.97,7.56 2,0.14 3.99,0.27 5.99,0.4 0.83,2.59 1.39,5.24 2.06,7.87 l -0.86,0.24 c -4.64,-0.07 -8.72,-2.42 -12.2,-5.28 -2.71,-1.97 -5.19,-4.25 -7.9,-6.21 -0.36,0.19 -1.07,0.56 -1.42,0.75 -1.06,1.07 -1.28,2.57 -1.53,3.99 -1.78,0.73 -3.57,1.44 -5.3,2.3 1.97,0.14 3.98,0.45 5.93,0 1.68,-0.89 2.99,-2.3 4.5,-3.43 1.78,1.38 3.52,2.82 5.06,4.47 1.76,1.87 3.61,3.67 5.62,5.29 -4.05,0.6 -7.01,3.91 -11.03,4.6 -3.62,0.73 -7.32,1.33 -10.61,3.11 0.09,-14.31 0.17,-28.63 -0.03,-42.94 -0.38,-20.02 -0.39,-40.06 -0.01,-60.07 z M 0,0 H 0.3 C 0.22,0.08 0.07,0.23 0,0.3 Z" />
  </g>
  <g
     id="#00209fff"
     style="display:inline">
    <path
       fill="#00209f"
       id="path23"
       d="m 373.26,249.88 c 0.69,0.09 2.07,0.29 2.75,0.39 -0.29,1.49 -2.9,1.14 -2.75,-0.39 z m -107.85,-5.75 c 0.43,-0.33 1.29,-1 1.72,-1.33 -1.03,2.41 -2.18,4.78 -3.33,7.15 1.2,-0.38 2.38,-0.77 3.57,-1.18 0.09,3.06 -4.52,2.61 -4.93,0.06 0.71,-1.73 1.85,-3.23 2.97,-4.7 z m 107.24,-2.35 c 0.44,0.45 1.32,1.33 1.76,1.78 1.05,2 3.41,4.44 1.6,6.71 -1.22,-2.79 -2.3,-5.64 -3.36,-8.49 z m -5.27,-0.03 c 0.25,2.57 3.16,2.67 4.73,4.13 0.45,1.31 0.77,2.66 1.15,4 -0.59,0.35 -1.76,1.06 -2.34,1.42 0.04,2.3 0.11,4.6 0.2,6.91 -8.05,3.08 -16.92,0.65 -25.13,3.25 -0.55,-1.38 -1.1,-2.75 -1.66,-4.11 6.87,-3.79 13.96,-7.2 20.65,-11.31 1.26,-0.62 1.94,-1.85 2.13,-3.21 z m 4.87,-0.39 c 0.1,0.11 0.3,0.32 0.4,0.42 -0.1,-0.1 -0.3,-0.31 -0.4,-0.42 z m -4.87,0.39 c -1.72,-0.21 -1.99,-0.77 -0.81,-1.66 0.2,0.42 0.6,1.24 0.81,1.66 z m -0.81,-1.66 c 1.32,-0.53 2.7,-0.88 4.09,-1.21 0.4,0.62 1.2,1.86 1.59,2.48 -1.91,-0.37 -3.81,-0.76 -5.68,-1.27 z m -97.4,-1.35 c 1.3,0.31 2.6,0.61 3.9,0.94 -0.12,0.52 -0.37,1.56 -0.49,2.08 -0.14,0.57 -0.41,1.72 -0.55,2.29 2.99,2.21 6.25,4.08 9.86,5.08 3.63,3.32 8.35,4.97 12.34,7.75 1.67,0.88 0.82,2.99 1.02,4.46 -4.12,0.01 -8.06,-1.54 -12.19,-1.41 -4.74,0.08 -9.68,0.2 -14.12,-1.73 0.24,-3.23 0.34,-6.63 -1.57,-9.43 -0.15,-3.11 2.15,-5.31 3.77,-7.69 -1.35,0.54 -2.68,1.12 -4.01,1.72 0.7,-1.35 1.37,-2.7 2.04,-4.06 z m 0.57,-2.3 c 0.64,-2.58 2.72,-4.22 4.66,-5.84 -1.07,1.92 -2.13,3.84 -3.19,5.77 0.97,-0.33 1.95,-0.65 2.93,-0.97 0.42,-1.09 0.85,-2.18 1.29,-3.27 1.32,-0.17 2.65,-0.33 3.97,-0.54 6.05,5.3 12.77,9.79 18.86,15.05 -0.56,1.89 -0.94,3.84 -1.3,5.78 -0.25,0.77 -0.75,2.3 -1,3.07 -4.81,-1.87 -9.11,-4.88 -14.07,-6.36 -2.19,-1.75 -4.57,-3.23 -6.8,-4.91 -0.03,-2.19 -0.16,-4.37 -0.23,-6.56 -1.71,-0.39 -3.41,-0.82 -5.12,-1.22 z m 4.77,-6.2 0.47,-0.24 c -0.15,0.15 -0.43,0.45 -0.58,0.6 z m 0.47,-0.24 c 0.14,-0.13 0.43,-0.41 0.58,-0.55 -0.15,0.14 -0.44,0.42 -0.58,0.55 z m 83.82,0.98 c 0.25,-1.99 0.96,-3.9 3.03,-4.57 1.38,1.36 2.78,2.69 4.18,4.04 1.78,1.69 3.29,3.65 4.2,5.95 -1.69,0.39 -3.36,0.81 -5.04,1.19 -0.17,1.85 -0.36,3.69 -0.55,5.54 -0.76,2.7 -3.56,3.61 -5.77,4.83 -5.29,2.62 -10.26,5.89 -15.72,8.19 -0.21,-3.12 0.26,-6.61 -1.94,-9.16 5.18,-4.45 10.85,-8.3 16.01,-12.77 1.08,-0.75 1.31,-2.05 1.6,-3.24 m 1.41,-1.92 c -0.03,0.68 -0.09,2.04 -0.12,2.71 1.27,0.03 2.54,0.05 3.81,0.08 1.09,2.09 2.24,4.64 5.07,4.27 -2.83,-2.52 -4.22,-7.73 -8.76,-7.06 z m -84.65,0.39 c 0.85,-1.03 1.71,-2.06 2.55,-3.11 1.17,0.73 2.3,1.57 3.11,2.72 -1.9,0.1 -3.78,0.22 -5.66,0.39 z m 77.53,-7.71 0.8,0.59 c 1.64,1.44 4.71,2.53 3.79,5.26 -0.48,0.21 -1.44,0.63 -1.91,0.85 l -0.47,0.19 c 0.37,-0.47 1.11,-1.42 1.48,-1.89 -1.49,-1.47 -2.87,-3.06 -3.69,-5 z m -67.73,0.82 0.67,-0.54 c -0.64,1.57 -1.28,3.13 -1.9,4.7 0.28,0.23 0.85,0.7 1.13,0.93 1.17,-1.99 2.68,-3.78 5.15,-3.92 4.04,5.6 9.44,10.03 13.45,15.67 -1.74,1.32 -1.66,3.61 -2.1,5.54 -0.25,0.33 -0.74,1 -0.98,1.33 -5.58,-3.42 -10.48,-7.79 -15.85,-11.5 -0.17,-1.57 -0.32,-3.13 -0.39,-4.7 l 0.14,-0.84 c -1.2,-0.89 -2.41,-1.76 -3.61,-2.64 1.37,-1.41 2.79,-2.76 4.29,-4.03 z m 60.26,-2.31 c 1.33,-0.51 2.68,-0.99 4.01,-1.54 1.11,1.05 2.25,2.08 3.46,3.03 -2.02,-0.37 -4.06,-0.52 -6.1,-0.6 0.03,2.18 2.41,2.3 3.96,2.97 2.27,0.46 3.17,2.81 4.35,4.52 l 0.08,0.47 c 0,0.43 -0.01,1.27 -0.01,1.69 -0.09,1.32 -0.2,2.64 -0.32,3.96 -5.45,3.88 -10.7,8.02 -16.18,11.85 -0.74,-2.45 -1.45,-4.93 -2.76,-7.15 3.37,-5.02 7.91,-9.05 11.9,-13.55 -0.2,-0.46 -0.59,-1.38 -0.79,-1.84 -0.55,-1.27 -1.08,-2.54 -1.6,-3.81 z m -59.59,1.77 c 1.43,-1.1 2.82,-2.23 4.17,-3.43 1.29,0.6 2.61,1.13 3.93,1.68 -0.44,1.02 -0.88,2.05 -1.32,3.07 -0.6,0.1 -1.8,0.3 -2.4,0.39 0.5,-0.94 0.99,-1.88 1.46,-2.83 -1.96,0.28 -3.92,0.61 -5.84,1.12 z M 318.59,182 c 1.67,0.11 3.33,0.25 5,0.4 0.16,1.54 0.3,3.09 0.37,4.64 -2,-0.77 -4.02,-1.51 -6.04,-2.23 0.17,-0.7 0.5,-2.11 0.67,-2.81 z M 0.3,0 H 640 v 240.11 c -81.4,-0.05 -162.8,0.16 -244.2,-0.11 0.38,-20.01 0.39,-40.06 0.01,-60.07 -4.6,-0.34 -9.21,-0.22 -13.81,-0.21 -41.33,0 -82.67,0 -124,0 -4.61,-0.01 -9.21,-0.13 -13.81,0.21 -0.38,20.01 -0.37,40.05 0.01,60.07 -81.4,0.27 -162.8,0.07 -244.2,0.1 V 0.3 C 0.07,0.23 0.22,0.08 0.3,0 Z" />
  </g>
  <g
     id="#026916ff"
     style="display:inline">
    <path
       fill="#026916"
       id="path47"
       d="m 350.13,276.89 c 1.42,-1.93 2.99,-3.76 4.93,-5.18 0.01,2.15 -0.05,4.31 -0.15,6.48 -1.61,-0.39 -3.2,-0.82 -4.78,-1.3 z m 5.9,-4.7 c 2.39,-1.66 5.22,-1.79 7.98,-1.11 -0.36,1.2 -0.73,2.41 -1.09,3.63 -1.42,-0.91 -2.86,-1.79 -4.34,-2.59 0.74,1.46 1.59,2.87 2.47,4.26 -1.22,0.77 -2.56,1.3 -3.94,1.68 -0.42,-1.95 -0.77,-3.91 -1.08,-5.87 z m -8.96,-0.2 c 2.03,-0.32 4.07,-0.62 6.12,-0.83 -1.29,1.59 -2.79,2.98 -4.37,4.28 -0.59,-1.15 -1.18,-2.3 -1.75,-3.45 z m -61.17,-0.28 c 2.02,-1.05 4.32,0.02 6.41,0.26 -0.31,1.12 -0.63,2.23 -0.97,3.34 -1.43,-0.89 -2.86,-1.77 -4.32,-2.59 0.64,1.46 1.34,2.91 2.04,4.36 -1.35,0.4 -2.7,0.77 -4.05,1.13 0.17,-2.12 -1.46,-5.16 0.89,-6.5 z m -10.03,-0.57 c 2.63,-0.39 5.82,-1.56 7.8,0.92 -0.28,2 -0.56,4 -0.85,6 -1.39,-0.39 -2.72,-0.93 -3.96,-1.66 0.88,-1.42 1.75,-2.84 2.52,-4.32 -1.51,0.84 -2.97,1.77 -4.41,2.72 -0.38,-1.22 -0.74,-2.44 -1.1,-3.66 z m 19.62,-1.96 c 1.67,2.39 3.05,5.15 5.43,6.92 4.18,2.32 9.08,2.58 13.7,3.41 7.5,1.63 15.24,-0.12 22.39,-2.46 3.72,-1.12 5.31,-4.97 7.43,-7.87 1.07,4.95 4.24,10.18 9.78,10.68 5.11,1.11 8.9,-3.04 11.77,-6.61 l 0.88,0.18 c 2.38,0.55 4.77,1.09 7.14,1.71 2.25,0.9 4.28,2.24 6.43,3.36 3.51,1.82 7.72,1.64 11.13,3.74 1.48,0.94 3.66,1.74 3.84,3.76 0.51,4.75 0.19,9.55 0.08,14.32 -26.83,0.18 -53.66,0.02 -80.49,0.07 -23.6,-0.15 -47.22,0.31 -70.81,-0.22 -0.06,-5.74 -0.05,-11.49 0.04,-17.23 3.29,-1.78 6.99,-2.38 10.61,-3.11 4.02,-0.69 6.98,-4 11.03,-4.6 2.44,-0.49 4.85,-1.17 7.24,-1.88 l 0.86,-0.24 c 2.59,4.26 7.37,8.13 12.67,6.56 5.1,-0.91 7.72,-5.89 8.85,-10.49 z M 379,268.02 c 2.72,-1.94 5.18,-4.23 7.92,-6.16 0.37,0.19 1.1,0.57 1.47,0.76 -1.22,0.93 -2.43,1.88 -3.64,2.82 -1.8,1.35 -3.55,2.79 -5.04,4.48 -0.18,-0.48 -0.53,-1.42 -0.71,-1.9 z m -127.41,-5.41 c 0.35,-0.19 1.06,-0.56 1.42,-0.75 2.71,1.96 5.19,4.24 7.9,6.21 -0.16,0.47 -0.49,1.4 -0.66,1.87 -1.54,-1.65 -3.28,-3.09 -5.06,-4.47 -1.21,-0.95 -2.4,-1.91 -3.6,-2.86 z m 50.17,-17.67 c 1.27,0.6 1.71,1.6 1.32,3 -0.81,-0.51 -1.57,-1.07 -2.3,-1.67 0.24,-0.33 0.73,-1 0.98,-1.33 z m -6.86,-54.16 c 3.42,-3.61 8.89,-4.25 13.52,-3.09 3.83,0.99 6.98,3.47 10.21,5.63 0.2,2 0.34,4.15 1.68,5.78 0.41,-1.96 0.75,-3.94 1.17,-5.89 2.92,-2.07 5.85,-4.29 9.33,-5.34 4.82,-1.44 10.57,-0.79 14.24,2.91 -5.15,0.4 -10.27,1.11 -15.11,2.98 7.73,-0.4 17.76,-3.08 23.35,3.99 -2.93,-0.08 -5.85,-0.23 -8.78,-0.31 2.45,2.21 4.86,4.59 5.68,7.9 -2.34,-0.36 -4.8,-0.59 -6.7,-2.17 -3.56,-2.8 -8.16,-3.33 -12.47,-4.11 5.09,2.08 10.4,4.14 14.24,8.26 -4.42,2.17 -8.88,-0.41 -12.8,-2.41 0.97,2.15 1.93,4.3 2.79,6.49 -1.16,0.4 -2.31,0.82 -3.45,1.25 -1.13,-0.94 -2.23,-1.91 -3.35,-2.85 0.91,4.27 -0.16,8.47 -2.08,12.3 -0.17,-1.35 -0.32,-2.7 -0.45,-4.04 -0.84,0.52 -1.66,1.05 -2.48,1.58 -0.32,-0.41 -0.98,-1.24 -1.3,-1.65 -0.71,-0.82 -1.46,-1.6 -2.25,-2.33 -2.4,-0.04 -2.32,2.82 -3.02,4.47 -0.94,-0.72 -1.88,-1.44 -2.81,-2.16 -0.16,1.4 -0.32,2.79 -0.5,4.19 -1.83,-3.83 -3.07,-8.03 -2.01,-12.27 -1.96,1.76 -4.37,2.94 -6.94,1.65 0.72,-2 1.51,-3.98 2.26,-5.96 -3.94,1.85 -8.33,3.52 -12.69,2.09 3.72,-4.16 9.02,-6.18 13.92,-8.56 -3.85,0.8 -8.04,1.23 -11.14,3.9 -1.97,1.82 -4.64,2.09 -7.17,2.32 0.53,-5.45 6.02,-7.09 10.18,-9.15 -4.21,0.93 -8.5,1.66 -12.83,1.3 1.08,-1.38 2.24,-2.83 4,-3.34 5.78,-2.09 12,-0.85 17.96,-0.48 -4.5,-1.98 -9.38,-2.4 -14.2,-2.88 m 45.63,5.36 c -0.26,1.4 2.21,2.14 3.26,1.61 0.37,-1.48 -2.21,-2.47 -3.26,-1.61 z" />
  </g>
  <g
     id="#b79132ff"
     style="display:inline">
    <path
       fill="#b79132"
       id="path58"
       d="m 366.87,273.43 c 4.63,-0.09 8.62,-2.62 12.13,-5.41 0.18,0.48 0.53,1.42 0.71,1.9 -1.74,1.91 -3.66,3.64 -5.7,5.22 -2.37,-0.62 -4.76,-1.16 -7.14,-1.71 z m -105.96,-5.36 c 3.48,2.86 7.56,5.21 12.2,5.28 -2.39,0.71 -4.8,1.39 -7.24,1.88 -2.01,-1.62 -3.86,-3.42 -5.62,-5.29 0.17,-0.47 0.5,-1.4 0.66,-1.87 z m 11.12,-24.02 c 0.14,-0.57 0.41,-1.72 0.55,-2.29 0.79,0.86 1.62,1.68 2.51,2.46 2.23,1.68 4.61,3.16 6.8,4.91 -3.61,-1 -6.87,-2.87 -9.86,-5.08 z m 98.63,-5.17 c 3.61,-0.83 7.18,-1.83 10.82,-2.56 -1.83,2.88 -4.29,5.28 -7.07,7.24 -0.44,-0.45 -1.32,-1.33 -1.76,-1.78 -0.1,-0.1 -0.3,-0.31 -0.4,-0.42 -0.39,-0.62 -1.19,-1.86 -1.59,-2.48 z m -112.7,-2.74 c 3.76,0.77 7.48,1.69 11.21,2.6 -0.67,1.36 -1.34,2.71 -2.04,4.06 -0.43,0.33 -1.29,1 -1.72,1.33 -2.57,-2.58 -5.18,-5.13 -7.45,-7.99 z m 103.87,-9.73 c 3.31,-1.89 6.88,-3.25 10.53,-4.33 -1.58,3.16 -3.82,5.92 -6.35,8.37 -1.4,-1.35 -2.8,-2.68 -4.18,-4.04 z m -94.74,-4.51 c 3.8,1.13 7.52,2.57 11.02,4.44 -0.84,1.05 -1.7,2.08 -2.55,3.11 -0.15,0.14 -0.44,0.42 -0.58,0.55 l -0.47,0.24 c -3.42,-1.78 -5.35,-5.26 -7.42,-8.34 z m 49.78,-1.77 c 0.7,-1.65 0.62,-4.51 3.02,-4.47 0.79,0.73 1.54,1.51 2.25,2.33 1.02,6.36 0.76,12.82 1.25,19.23 1.56,-3.25 2.22,-6.98 4.78,-9.67 1.49,0.38 2.99,0.73 4.5,1.01 1.31,4.12 -1.93,7.69 -2.58,11.63 2.11,-2.83 2.98,-6.68 6.13,-8.63 -0.23,1.84 -0.54,3.67 -0.88,5.49 3.92,-4.37 7.92,-8.66 11.88,-12.99 0.2,0.46 0.59,1.38 0.79,1.84 -3.99,4.5 -8.53,8.53 -11.9,13.55 -3.97,4.26 -8.02,8.45 -11.63,13.03 -1.38,1.46 -1.27,3.57 -1.58,5.42 5.56,-3.42 10.57,-7.65 15.97,-11.3 5.48,-3.83 10.73,-7.97 16.18,-11.85 0.12,-1.32 0.23,-2.64 0.32,-3.96 0.2,0.55 0.59,1.63 0.79,2.18 0.88,-0.67 1.76,-1.33 2.64,-1.99 -0.29,1.19 -0.52,2.49 -1.6,3.24 -5.16,4.47 -10.83,8.32 -16.01,12.77 -4.45,3.62 -8.76,7.4 -13.28,10.93 -1.83,1.5 -4.1,2.58 -5.43,4.59 -0.3,1.36 -0.1,2.76 -0.08,4.14 1.41,-0.18 2.91,-0.29 4.12,-1.15 5.43,-3.29 10.74,-6.87 16.61,-9.35 5.46,-2.3 10.43,-5.57 15.72,-8.19 2.21,-1.22 5.01,-2.13 5.77,-4.83 0.88,0.65 1.71,0.55 2.49,-0.3 -0.19,1.36 -0.87,2.59 -2.13,3.21 -6.69,4.11 -13.78,7.52 -20.65,11.31 0.56,1.36 1.11,2.73 1.66,4.11 8.21,-2.6 17.08,-0.17 25.13,-3.25 0.51,-0.24 1.53,-0.74 2.04,-0.98 0.13,2.54 0.26,5.1 0.2,7.65 -1.95,0.17 -3.89,0.37 -5.82,0.61 -0.58,2.58 -1.08,5.17 -1.55,7.76 -2.87,3.57 -6.66,7.72 -11.77,6.61 -5.54,-0.5 -8.71,-5.73 -9.78,-10.68 -2.12,2.9 -3.71,6.75 -7.43,7.87 -7.15,2.34 -14.89,4.09 -22.39,2.46 -4.62,-0.83 -9.52,-1.09 -13.7,-3.41 -2.38,-1.77 -3.76,-4.53 -5.43,-6.92 -1.13,4.6 -3.75,9.58 -8.85,10.49 -5.3,1.57 -10.08,-2.3 -12.67,-6.56 -0.67,-2.63 -1.23,-5.28 -2.06,-7.87 -2,-0.13 -3.99,-0.26 -5.99,-0.4 0.23,-2.53 0.56,-5.05 0.97,-7.56 0.51,0.23 1.54,0.69 2.05,0.92 4.44,1.93 9.38,1.81 14.12,1.73 4.13,-0.13 8.07,1.42 12.19,1.41 -0.2,-1.47 0.65,-3.58 -1.02,-4.46 -3.99,-2.78 -8.71,-4.43 -12.34,-7.75 4.96,1.48 9.26,4.49 14.07,6.36 0.25,-0.77 0.75,-2.3 1,-3.07 4.22,-0.07 4.79,4.19 6.63,6.97 4.17,2.92 8.81,5.94 14.04,6.22 1.11,-4.71 -4.57,-5.5 -7.03,-8.24 -3.83,-3.89 -8.05,-7.36 -12.34,-10.73 -6.09,-5.26 -12.81,-9.75 -18.86,-15.05 0.42,-0.08 1.27,-0.25 1.69,-0.33 0.97,0.49 1.91,1.03 2.86,1.56 0.2,-0.92 0.4,-1.83 0.59,-2.75 0.07,1.57 0.22,3.13 0.39,4.7 5.37,3.71 10.27,8.08 15.85,11.5 0.73,0.6 1.49,1.16 2.3,1.67 4.62,3.39 8.92,7.29 14.06,9.91 -0.45,-2.04 -0.77,-4.22 -2.19,-5.84 -3.49,-4.39 -7.3,-8.5 -11.09,-12.61 -4.01,-5.64 -9.41,-10.07 -13.45,-15.67 0.6,-0.09 1.8,-0.29 2.4,-0.39 2.89,4.8 7.14,8.53 10.89,12.62 -0.09,-1.52 -0.17,-3.05 -0.2,-4.57 3.4,2.19 4.27,6.44 6.5,9.6 -1.06,-4.19 -3.26,-8.21 -2.78,-12.66 4.15,1.61 3.66,7.24 5.65,10.67 0.08,-3.25 -3.23,-7.75 0.2,-10 1.03,2.34 1.89,4.76 2.82,7.14 0.01,-5.35 0.05,-10.72 0.98,-16.01 m 11.27,12.33 c -0.88,1.24 -0.63,1.92 0.74,2.04 0.87,-1.25 0.63,-1.93 -0.74,-2.04 m -52.27,38.68 c 0.36,1.22 0.72,2.44 1.1,3.66 1.44,-0.95 2.9,-1.88 4.41,-2.72 -0.77,1.48 -1.64,2.9 -2.52,4.32 1.24,0.73 2.57,1.27 3.96,1.66 0.29,-2 0.57,-4 0.85,-6 -1.98,-2.48 -5.17,-1.31 -7.8,-0.92 m 10.03,0.57 c -2.35,1.34 -0.72,4.38 -0.89,6.5 1.35,-0.36 2.7,-0.73 4.05,-1.13 -0.7,-1.45 -1.4,-2.9 -2.04,-4.36 1.46,0.82 2.89,1.7 4.32,2.59 0.34,-1.11 0.66,-2.22 0.97,-3.34 -2.09,-0.24 -4.39,-1.31 -6.41,-0.26 m 61.17,0.28 c 0.57,1.15 1.16,2.3 1.75,3.45 1.58,-1.3 3.08,-2.69 4.37,-4.28 -2.05,0.21 -4.09,0.51 -6.12,0.83 m 8.96,0.2 c 0.31,1.96 0.66,3.92 1.08,5.87 1.38,-0.38 2.72,-0.91 3.94,-1.68 -0.88,-1.39 -1.73,-2.8 -2.47,-4.26 1.48,0.8 2.92,1.68 4.34,2.59 0.36,-1.22 0.73,-2.43 1.09,-3.63 -2.76,-0.68 -5.59,-0.55 -7.98,1.11 m -5.9,4.7 c 1.58,0.48 3.17,0.91 4.78,1.3 0.1,-2.17 0.16,-4.33 0.15,-6.48 -1.94,1.42 -3.51,3.25 -4.93,5.18 z m -0.5,-58.18 c 3.19,-1.91 5.98,-4.48 9.46,-5.91 -0.86,3.59 -2.86,6.73 -5.2,9.53 l -0.8,-0.59 c -1.21,-0.95 -2.35,-1.98 -3.46,-3.03 z m -68.82,-5.86 c 3.39,1.48 6.27,3.82 9.39,5.74 -1.35,1.2 -2.74,2.33 -4.17,3.43 l -0.67,0.54 c -1.88,-3.05 -3.56,-6.25 -4.55,-9.71 z m 37.52,-24.18 c 1.42,0.4 2.7,1.13 3.87,2.04 -0.27,0.82 -0.51,1.66 -0.72,2.5 -0.42,1.95 -0.76,3.93 -1.17,5.89 -1.34,-1.63 -1.48,-3.78 -1.68,-5.78 -0.09,-1.55 -0.18,-3.1 -0.3,-4.65 z" />
  </g>
  <g
     id="#d21034ff"
     style="display:inline">
    <path
       id="path59"
       d="m 0,240.1 c 81.4,-0.03 162.8,0.17 244.2,-0.1 0.2,14.31 0.12,28.63 0.03,42.94 -0.09,5.74 -0.1,11.49 -0.04,17.23 23.59,0.53 47.21,0.07 70.81,0.22 26.83,-0.05 53.66,0.11 80.49,-0.07 0.5,-5.13 0.25,-10.27 0.09,-15.4 0.32,-14.97 -0.08,-29.95 0.22,-44.92 81.4,0.27 162.8,0.06 244.2,0.11 V 480 H 0 Z m 384.75,25.34 c 1.21,-0.94 2.42,-1.89 3.64,-2.82 1.05,1.12 1.21,2.66 1.4,4.11 1.8,0.67 3.6,1.36 5.35,2.18 -1.38,0.15 -2.77,0.22 -4.16,0.21 -2.66,0.16 -4.25,-2.34 -6.23,-3.68 z m -134.69,1.16 c 0.25,-1.42 0.47,-2.92 1.53,-3.99 1.2,0.95 2.39,1.91 3.6,2.86 -1.51,1.13 -2.82,2.54 -4.5,3.43 -1.95,0.45 -3.96,0.14 -5.93,0 1.73,-0.86 3.52,-1.57 5.3,-2.3 z m 77.85,-8.68 c 4.52,-3.53 8.83,-7.31 13.28,-10.93 2.2,2.55 1.73,6.04 1.94,9.16 -5.87,2.48 -11.18,6.06 -16.61,9.35 -1.21,0.86 -2.71,0.97 -4.12,1.15 -0.02,-1.38 -0.22,-2.78 0.08,-4.14 1.33,-2.01 3.6,-3.09 5.43,-4.59 z m -29.65,-11.28 c 4.29,3.37 8.51,6.84 12.34,10.73 2.46,2.74 8.14,3.53 7.03,8.24 -5.23,-0.28 -9.87,-3.3 -14.04,-6.22 -1.84,-2.78 -2.41,-7.04 -6.63,-6.97 0.36,-1.94 0.74,-3.89 1.3,-5.78 z m -31.13,-3.84 c 1.33,-0.6 2.66,-1.18 4.01,-1.72 -1.62,2.38 -3.92,4.58 -3.77,7.69 -1.19,0.41 -2.37,0.8 -3.57,1.18 1.15,-2.37 2.3,-4.74 3.33,-7.15 z m 99.44,-2.71 c 1.87,0.51 3.77,0.9 5.68,1.27 0.1,0.11 0.3,0.32 0.4,0.42 1.06,2.85 2.14,5.7 3.36,8.49 -0.68,-0.1 -2.06,-0.3 -2.75,-0.39 -0.38,-1.34 -0.7,-2.69 -1.15,-4 -1.57,-1.46 -4.48,-1.56 -4.73,-4.13 -0.21,-0.42 -0.61,-1.24 -0.81,-1.66 z m -42.09,12.39 c 3.61,-4.58 7.66,-8.77 11.63,-13.03 1.31,2.22 2.02,4.7 2.76,7.15 -5.4,3.65 -10.41,7.88 -15.97,11.3 0.31,-1.85 0.2,-3.96 1.58,-5.42 z m -22.72,-7.54 c 0.44,-1.93 0.36,-4.22 2.1,-5.54 3.79,4.11 7.6,8.22 11.09,12.61 1.42,1.62 1.74,3.8 2.19,5.84 -5.14,-2.62 -9.44,-6.52 -14.06,-9.91 0.39,-1.4 -0.05,-2.4 -1.32,-3 z m 58.45,-15.88 c 4.54,-0.67 5.93,4.54 8.76,7.06 -2.83,0.37 -3.98,-2.18 -5.07,-4.27 -1.27,-0.03 -2.54,-0.05 -3.81,-0.08 0.03,-0.67 0.09,-2.03 0.12,-2.71 z m -84.65,0.39 c 1.88,-0.17 3.76,-0.29 5.66,-0.39 -0.04,0.55 -0.1,1.65 -0.13,2.2 -0.42,0.08 -1.27,0.25 -1.69,0.33 -1.32,0.21 -2.65,0.37 -3.97,0.54 -0.44,1.09 -0.87,2.18 -1.29,3.27 -0.98,0.32 -1.96,0.64 -2.93,0.97 1.06,-1.93 2.12,-3.85 3.19,-5.77 0.15,-0.15 0.43,-0.45 0.58,-0.6 0.14,-0.13 0.43,-0.41 0.58,-0.55 z m 79.74,-0.82 0.47,-0.19 c -0.1,0.16 -0.29,0.5 -0.39,0.66 z m -8.31,-7.49 c 2.04,0.08 4.08,0.23 6.1,0.6 0.82,1.94 2.2,3.53 3.69,5 -0.37,0.47 -1.11,1.42 -1.48,1.89 -1.18,-1.71 -2.08,-4.06 -4.35,-4.52 -1.55,-0.67 -3.93,-0.79 -3.96,-2.97 z m -60.96,0.88 c 1.92,-0.51 3.88,-0.84 5.84,-1.12 -0.47,0.95 -0.96,1.89 -1.46,2.83 -2.47,0.14 -3.98,1.93 -5.15,3.92 -0.28,-0.23 -0.85,-0.7 -1.13,-0.93 0.62,-1.57 1.26,-3.13 1.9,-4.7 z m 31.89,-37.21 c 2.02,0.72 4.04,1.46 6.04,2.23 0.02,0.68 0.04,2.03 0.06,2.7 -0.46,0.24 -1.37,0.72 -1.82,0.97 -1.17,-0.91 -2.45,-1.64 -3.87,-2.04 -0.53,-0.16 -1.59,-0.5 -2.12,-0.67 0.58,-1.06 1.16,-2.11 1.71,-3.19 z"
       fill="#d21034" />
  </g>
</svg>
